<svg width="85" height="86" viewBox="0 0 85 86" fill="none" xmlns="http://www.w3.org/2000/svg">
<g filter="url(#filter0_d_388_577)">
<path d="M42.5171 72.7329C51.5209 72.7329 59.6723 69.0833 65.5729 63.1827C71.4734 57.2822 75.123 49.1307 75.123 40.1269C75.123 31.1231 71.4734 22.9716 65.5729 17.071C59.6723 11.1705 51.5209 7.521 42.5171 7.521C33.5133 7.521 25.3618 11.1705 19.4612 17.071C13.5607 22.9716 9.91113 31.1231 9.91113 40.1269C9.91113 49.1307 13.5607 57.2822 19.4612 63.1827C25.3618 69.0833 33.5133 72.7329 42.5171 72.7329Z" fill="#E24220" stroke="white" stroke-width="3.86441" stroke-linejoin="round"/>
<path d="M29.4746 40.127L39.2564 49.9088L58.8199 30.3452" stroke="white" stroke-width="3.86441" stroke-linecap="round" stroke-linejoin="round"/>
</g>
<defs>
<filter id="filter0_d_388_577" x="-4.33892" y="-3.83051" width="93.7118" height="93.7118" filterUnits="userSpaceOnUse" color-interpolation-filters="sRGB">
<feFlood flood-opacity="0" result="BackgroundImageFix"/>
<feColorMatrix in="SourceAlpha" type="matrix" values="0 0 0 0 0 0 0 0 0 0 0 0 0 0 0 0 0 0 127 0" result="hardAlpha"/>
<feOffset dy="2.89831"/>
<feGaussianBlur stdDeviation="3.86441"/>
<feColorMatrix type="matrix" values="0 0 0 0 0 0 0 0 0 0 0 0 0 0 0 0 0 0 0.24 0"/>
<feBlend mode="normal" in2="BackgroundImageFix" result="effect1_dropShadow_388_577"/>
<feBlend mode="normal" in="SourceGraphic" in2="effect1_dropShadow_388_577" result="shape"/>
</filter>
</defs>
</svg>
